<svg xmlns="http://www.w3.org/2000/svg" viewBox="0 0 64 64"><defs><style>.cls-1{fill:#00cde2;}.cls-2{fill:#00a4b5;}.cls-3{fill:#37474f;}</style></defs><title>Plane</title><g id="Layer_2" data-name="Layer 2"><g id="Layer_1-2" data-name="Layer 1"><rect class="cls-1" x="17.89" y="11.11" width="15.34" height="7.67" rx="3" ry="3" transform="translate(-3.08 22.45) rotate(-45)"/><rect class="cls-1" x="41.39" y="34.61" width="15.34" height="7.67" rx="3" ry="3" transform="translate(-12.82 45.95) rotate(-45)"/><path class="cls-2" d="M.37,9.39h0A6.09,6.09,0,0,1,6.45,7.87L44.54,19.46,56.13,57.55a6.09,6.09,0,0,1-1.52,6.08h0a1.28,1.28,0,0,1-1.92-.13L30.07,33.93.5,11.31A1.28,1.28,0,0,1,.37,9.39Z"/><path class="cls-2" d="M.38,38.31h0a5.52,5.52,0,0,1,6-1.22L21,43l5.88,14.7a5.52,5.52,0,0,1-1.22,6h0a1.28,1.28,0,0,1-1.93-.14L13.8,50.2.52,40.23A1.28,1.28,0,0,1,.38,38.31Z"/><path class="cls-1" d="M63.85,4.91h0a2.93,2.93,0,0,0-.71-3L62.09.86a2.93,2.93,0,0,0-3-.71h0A49.66,49.66,0,0,0,35.25,17.21L11.74,48.16A2.93,2.93,0,0,0,12,52h0a2.93,2.93,0,0,0,3.84.26L46.79,28.75A49.66,49.66,0,0,0,63.85,4.91Z"/><path class="cls-3" d="M51.89,6.17,53,5.81a4.14,4.14,0,0,1,4.23,1h0a4.14,4.14,0,0,1,1,4.23l-.36,1.07a1.26,1.26,0,0,1-2.08.49h0a1.26,1.26,0,0,1-.37-.89V9.87a1.26,1.26,0,0,0-1.26-1.26H52.29a1.26,1.26,0,0,1-.89-.37h0A1.26,1.26,0,0,1,51.89,6.17Z"/></g></g></svg>